<?xml version="1.0" encoding="UTF-8" standalone="no"?>
<!-- Created with Inkscape (http://www.inkscape.org/) -->

<svg
   xmlns:dc="http://purl.org/dc/elements/1.1/"
   xmlns:cc="http://creativecommons.org/ns#"
   xmlns:rdf="http://www.w3.org/1999/02/22-rdf-syntax-ns#"
   xmlns:svg="http://www.w3.org/2000/svg"
   xmlns="http://www.w3.org/2000/svg"
   version="1.0"
   width="403.78769"
   height="270.15933"
   id="svg2">
  <defs
     id="defs4" />
  <metadata
     id="metadata7">
    <rdf:RDF>
      <cc:Work
         rdf:about="">
        <dc:format>image/svg+xml</dc:format>
        <dc:type
           rdf:resource="http://purl.org/dc/dcmitype/StillImage" />
        <dc:title></dc:title>
        <dc:creator>
          <cc:Agent>
            <dc:title>Tyler Tidman VA3DGN</dc:title>
          </cc:Agent>
        </dc:creator>
      </cc:Work>
    </rdf:RDF>
  </metadata>
  <g
     transform="translate(-70.105983,-143.74732)"
     id="layer1">
    <g
       id="g3552">
      <path
         d="m 78.09375,101.03125 c -18.45708,0 -34.89122,8.71119 -45.40625,22.25 l 90.78125,0 c -10.51503,-13.53881 -26.91792,-22.25 -45.375,-22.25 z m -48.25,26.21875 c -3.532078,5.44361 -6.158519,11.52871 -7.6875,18.03125 l 111.84375,0 c -1.52898,-6.50254 -4.15542,-12.58764 -7.6875,-18.03125 l -96.46875,0 z m -8.46875,22 c -0.484572,3.00224 -0.75,6.08012 -0.75,9.21875 0,3.70093 0.361492,7.30548 1.03125,10.8125 l 112.84375,0 c 0.66901,-3.50702 1.03125,-7.11157 1.03125,-10.8125 0,-3.13863 -0.26543,-6.21651 -0.75,-9.21875 l -113.40625,0 z m 1.1875,24 c 1.741119,6.54499 4.632738,12.6211 8.40625,18.03125 l 94.25,0 c 3.76758,-5.4084 6.63652,-11.48908 8.375,-18.03125 l -111.03125,0 z m 11.40625,22 c 10.541727,12.63159 26.402312,20.6875 44.125,20.6875 17.722685,0 33.56128,-8.05591 44.09375,-20.6875 l -88.21875,0 z"
         transform="translate(70.105983,143.74732)"
         id="path2581"
         style="fill:#000000;fill-opacity:1;stroke:none" />
      <text
         x="222.12711"
         y="275.82159"
         transform="scale(0.974858,1.0257904)"
         id="text2503"
         xml:space="preserve"
         style="font-size:46.79318237px;font-style:normal;font-variant:normal;font-weight:normal;font-stretch:semi-condensed;text-align:start;line-height:89.99999762%;writing-mode:lr-tb;text-anchor:start;fill:#000000;fill-opacity:1;stroke:none;font-family:DejaVu Sans;-inkscape-font-specification:DejaVu Sans Semi-Condensed"><tspan
           x="222.12711"
           y="275.82159"
           id="tspan2513"><tspan
   id="tspan2521"
   style="font-size:46.79318237px;font-style:normal;font-variant:normal;font-weight:normal;font-stretch:semi-condensed;text-align:start;line-height:89.99999762%;writing-mode:lr-tb;text-anchor:start;fill:#ff0000;font-family:DejaVu Sans;-inkscape-font-specification:DejaVu Sans Semi-Condensed">E</tspan>MERGENCY</tspan><tspan
           x="222.12711"
           y="317.93546"
           id="tspan2515"><tspan
   id="tspan2523"
   style="font-size:46.79318237px;font-style:normal;font-variant:normal;font-weight:normal;font-stretch:semi-condensed;text-align:start;line-height:89.99999762%;writing-mode:lr-tb;text-anchor:start;fill:#ff0000;font-family:DejaVu Sans;-inkscape-font-specification:DejaVu Sans Semi-Condensed">M</tspan>EASURES</tspan><tspan
           x="222.12711"
           y="360.04932"
           id="tspan2517"><tspan
   id="tspan2525"
   style="font-size:46.79318237px;font-style:normal;font-variant:normal;font-weight:normal;font-stretch:semi-condensed;text-align:start;line-height:89.99999762%;writing-mode:lr-tb;text-anchor:start;fill:#ff0000;font-family:DejaVu Sans;-inkscape-font-specification:DejaVu Sans Semi-Condensed">R</tspan>ADIO</tspan><tspan
           x="222.12711"
           y="402.16318"
           id="tspan2519"><tspan
   id="tspan2527"
   style="font-size:46.79318237px;font-style:normal;font-variant:normal;font-weight:normal;font-stretch:semi-condensed;text-align:start;line-height:89.99999762%;writing-mode:lr-tb;text-anchor:start;fill:#ff0000;font-family:DejaVu Sans;-inkscape-font-specification:DejaVu Sans Semi-Condensed">G</tspan>ROUP</tspan></text>
      <rect
         width="22.059345"
         height="43.916702"
         rx="0"
         ry="0"
         x="181.30098"
         y="183.11232"
         id="rect2529"
         style="fill:#000000;fill-opacity:1;stroke:none" />
      <rect
         width="22.059345"
         height="43.916702"
         rx="0"
         ry="0"
         x="215.03473"
         y="183.45654"
         id="rect2533"
         style="fill:#000000;fill-opacity:1;stroke:none" />
      <rect
         width="22.059345"
         height="5.8801804"
         rx="0"
         ry="0"
         x="199.02841"
         y="199.29076"
         id="rect2535"
         style="fill:#000000;fill-opacity:1;stroke:none" />
      <path
         d="m 188.11728,209.77602 a 10.584824,15.23182 0 1 1 -21.16965,0 10.584824,15.23182 0 1 1 21.16965,0 z"
         transform="matrix(1.1707317,0,0,1.0734463,-15.529083,-64.913321)"
         id="path2537"
         style="fill:#000000;fill-opacity:1;stroke:none" />
      <path
         d="m 188.11728,209.77602 a 10.584824,15.23182 0 1 1 -21.16965,0 10.584824,15.23182 0 1 1 21.16965,0 z"
         transform="matrix(1.1707317,0,0,1.0734463,18.311444,-65.085432)"
         id="path2541"
         style="fill:#000000;fill-opacity:1;stroke:none" />
      <path
         d="m 188.11728,209.77602 a 10.584824,15.23182 0 1 1 -21.16965,0 10.584824,15.23182 0 1 1 21.16965,0 z"
         transform="matrix(0,1.5834263,-1.0734463,0,417.49322,103.15895)"
         id="path2570"
         style="fill:#ff0000;fill-opacity:1;stroke:none" />
      <path
         d="m 143.14582,387.23798 0,24.19366 -70.564837,0 0,-188.17292 77.957347,0 36.96254,-23.52161"
         id="path3375"
         style="fill:none;stroke:#000000;stroke-width:4.94999981;stroke-linecap:butt;stroke-linejoin:miter;stroke-miterlimit:4;stroke-opacity:1;stroke-dasharray:none" />
      <rect
         width="29.835485"
         height="74.158775"
         rx="0"
         ry="0"
         x="369.37357"
         y="-169.46756"
         transform="matrix(0,1,-1,0,0,0)"
         id="rect2564"
         style="fill:#ff0000;fill-opacity:1;stroke:none" />
    </g>
  </g>
</svg>
